<svg width="101" height="87" viewBox="0 0 101 87" fill="none" xmlns="http://www.w3.org/2000/svg">
    <path fill-rule="evenodd" clip-rule="evenodd"
        d="M42.3635 15.8815C35.0741 8.45227 23.2955 8.45227 16.0061 15.8815C8.66465 23.3636 8.66465 35.5331 16.0061 43.0152L46.9311 74.5331C48.8911 76.5306 52.1089 76.5306 54.0689 74.5331L84.994 43.0152C92.3353 35.5331 92.3353 23.3636 84.994 15.8815C77.7045 8.45227 65.926 8.45227 58.6365 15.8815L54.0689 20.5366C53.1287 21.4949 51.8425 22.0348 50.5 22.0348C49.1575 22.0348 47.8713 21.4949 46.9311 20.5366L42.3635 15.8815ZM49.5014 8.87785L50.5 9.8956L51.4986 8.87785C62.7081 -2.54652 80.9223 -2.54652 92.1318 8.87785C103.289 20.2493 103.289 38.6474 92.1318 50.0189L61.2068 81.5367C55.3268 87.5294 45.6732 87.5294 39.7932 81.5367L8.86818 50.0189C-2.28939 38.6474 -2.28939 20.2493 8.86818 8.87785C20.0777 -2.54652 38.2919 -2.54652 49.5014 8.87785Z"
        fill="#FDA19B" />
</svg>